<svg width="16" height="16" viewBox="0 0 16 16" fill="none" xmlns="http://www.w3.org/2000/svg">
<g clip-path="url(#clip0)">
<path d="M3.63535 5.32297H0.197876V15.6458H3.63535V5.32297Z" fill="#2E2E2E"/>
<path d="M14.9166 6.26584C14.1945 5.47762 13.2395 5.08344 12.0521 5.08344C11.6146 5.08344 11.2169 5.13725 10.8592 5.24495C10.5016 5.35259 10.1996 5.5036 9.95299 5.69806C9.70654 5.89253 9.51025 6.07306 9.36452 6.23965C9.22595 6.39788 9.09045 6.5822 8.95823 6.79072V5.32285H5.53101L5.54151 5.82291C5.54855 6.15635 5.55202 7.18406 5.55202 8.90619C5.55202 10.6285 5.54509 12.8749 5.53115 15.6458H8.95823V9.88527C8.95823 9.53118 8.99621 9.24999 9.07275 9.04148C9.21869 8.68713 9.43895 8.39047 9.73426 8.15099C10.0295 7.91121 10.3957 7.79143 10.8334 7.79143C11.4304 7.79143 11.8698 7.998 12.1511 8.4112C12.4323 8.82435 12.5729 9.39556 12.5729 10.1248V15.6454H16V9.72918C15.9997 8.2082 15.6389 7.05381 14.9166 6.26584Z" fill="#2E2E2E"/>
<path d="M1.93746 0.354187C1.36115 0.354187 0.894175 0.522711 0.536439 0.859432C0.17874 1.19622 0 1.62142 0 2.13542C0 2.64224 0.173596 3.06597 0.520824 3.40616C0.867942 3.74638 1.32634 3.91659 1.89576 3.91659H1.9166C2.49999 3.91659 2.97054 3.74653 3.32813 3.40616C3.68572 3.06597 3.86103 2.64238 3.85413 2.13542C3.8472 1.62146 3.66999 1.19622 3.32287 0.859432C2.97579 0.522565 2.51382 0.354187 1.93746 0.354187Z" fill="#2E2E2E"/>
</g>
<defs>
<clipPath id="clip0">
<rect width="16" height="16" fill="white"/>
</clipPath>
</defs>
</svg>
