<svg width="16" height="16" viewBox="0 0 16 16" fill="none" xmlns="http://www.w3.org/2000/svg">
<g clip-path="url(#clip0)">
<path d="M8 0.333313C3.58 0.333313 0 3.85331 0 8.19465C0 11.6686 2.292 14.6146 5.47 15.6533C5.87 15.7273 6.01667 15.484 6.01667 15.2753C6.01667 15.0886 6.01 14.594 6.00667 13.9386C3.78133 14.4126 3.312 12.884 3.312 12.884C2.948 11.9766 2.422 11.734 2.422 11.734C1.69733 11.2466 2.478 11.2566 2.478 11.2566C3.28133 11.3113 3.70333 12.0666 3.70333 12.0666C4.41667 13.2686 5.576 12.9213 6.03333 12.7206C6.10533 12.212 6.31133 11.866 6.54 11.6693C4.76333 11.4726 2.896 10.7966 2.896 7.78465C2.896 6.92665 3.206 6.22531 3.71933 5.67531C3.62933 5.47665 3.35933 4.67731 3.78933 3.59465C3.78933 3.59465 4.45933 3.38398 5.98933 4.40065C6.62933 4.22598 7.30933 4.13931 7.98933 4.13531C8.66933 4.13931 9.34933 4.22598 9.98933 4.40065C11.5093 3.38398 12.1793 3.59465 12.1793 3.59465C12.6093 4.67731 12.3393 5.47665 12.2593 5.67531C12.7693 6.22531 13.0793 6.92665 13.0793 7.78465C13.0793 10.8046 11.2093 11.4693 9.42933 11.6626C9.70933 11.8986 9.96933 12.3806 9.96933 13.1173C9.96933 14.1693 9.95933 15.0146 9.95933 15.27C9.95933 15.476 10.0993 15.722 10.5093 15.6433C13.71 14.6113 16 11.6633 16 8.19465C16 3.85331 12.418 0.333313 8 0.333313V0.333313Z" fill="#2E2E2E"/>
</g>
<defs>
<clipPath id="clip0">
<rect width="16" height="16" fill="white"/>
</clipPath>
</defs>
</svg>
