<svg width="106" height="19" viewBox="0 0 106 19" fill="none" xmlns="http://www.w3.org/2000/svg">
<path d="M0.44 0.48H3.656V13.968C3.656 14.432 3.768 14.792 3.992 15.048C4.216 15.304 4.536 15.432 4.952 15.432C5.144 15.432 5.352 15.4 5.576 15.336C5.816 15.272 6.04 15.192 6.248 15.096L6.68 17.544C6.248 17.752 5.744 17.912 5.168 18.024C4.592 18.136 4.072 18.192 3.608 18.192C2.6 18.192 1.816 17.928 1.256 17.4C0.712 16.856 0.44 16.088 0.44 15.096V0.48ZM11.5132 18.24C10.9052 18.24 10.3372 18.144 9.80919 17.952C9.28119 17.744 8.82519 17.464 8.44119 17.112C8.05719 16.744 7.75319 16.32 7.52919 15.84C7.32119 15.36 7.21719 14.832 7.21719 14.256C7.21719 13.664 7.34519 13.12 7.60119 12.624C7.87319 12.112 8.24119 11.68 8.70519 11.328C9.18519 10.976 9.75319 10.704 10.4092 10.512C11.0652 10.304 11.7852 10.2 12.5692 10.2C13.1292 10.2 13.6732 10.248 14.2012 10.344C14.7452 10.44 15.2252 10.576 15.6412 10.752V10.032C15.6412 9.2 15.4012 8.56 14.9212 8.112C14.4572 7.664 13.7612 7.44 12.8332 7.44C12.1612 7.44 11.5052 7.56 10.8652 7.8C10.2252 8.04 9.56919 8.392 8.89719 8.856L7.91319 6.816C9.52919 5.744 11.2732 5.208 13.1452 5.208C14.9532 5.208 16.3532 5.656 17.3452 6.552C18.3532 7.432 18.8572 8.712 18.8572 10.392V14.304C18.8572 14.64 18.9132 14.88 19.0252 15.024C19.1532 15.168 19.3532 15.248 19.6252 15.264V18C19.0812 18.112 18.6092 18.168 18.2092 18.168C17.6012 18.168 17.1292 18.032 16.7932 17.76C16.4732 17.488 16.2732 17.128 16.1932 16.68L16.1212 15.984C15.5612 16.72 14.8812 17.28 14.0812 17.664C13.2812 18.048 12.4252 18.24 11.5132 18.24ZM12.4252 15.888C12.9692 15.888 13.4812 15.792 13.9612 15.6C14.4572 15.408 14.8412 15.152 15.1132 14.832C15.4652 14.56 15.6412 14.256 15.6412 13.92V12.48C15.2572 12.336 14.8412 12.224 14.3932 12.144C13.9452 12.048 13.5132 12 13.0972 12C12.2652 12 11.5852 12.192 11.0572 12.576C10.5292 12.944 10.2652 13.416 10.2652 13.992C10.2652 14.536 10.4732 14.992 10.8892 15.36C11.3052 15.712 11.8172 15.888 12.4252 15.888ZM21.7904 18V14.544H24.4304V18H21.7904ZM38.9411 18H35.7251V10.944C35.7251 9.952 35.5411 9.224 35.1731 8.76C34.8051 8.28 34.2851 8.04 33.6131 8.04C33.3251 8.04 33.0211 8.104 32.7011 8.232C32.3811 8.36 32.0771 8.544 31.7891 8.784C31.5011 9.008 31.2371 9.28 30.9971 9.6C30.7571 9.92 30.5811 10.272 30.4691 10.656V18H27.2531V0.48H30.4691V7.752C30.9331 6.936 31.5571 6.312 32.3411 5.88C33.1411 5.432 34.0211 5.208 34.9811 5.208C35.7971 5.208 36.4611 5.352 36.9731 5.64C37.4851 5.912 37.8851 6.28 38.1731 6.744C38.4611 7.208 38.6611 7.736 38.7731 8.328C38.8851 8.92 38.9411 9.528 38.9411 10.152V18ZM41.7374 18V5.424H44.9534V18H41.7374ZM41.7374 3.672V0.48H44.9534V3.672H41.7374ZM55.0066 18.24C54.0466 18.24 53.1906 18.024 52.4386 17.592C51.6866 17.16 51.0946 16.568 50.6626 15.816V18H47.8546V0.48H51.0706V7.632C51.5186 6.864 52.1026 6.272 52.8226 5.856C53.5586 5.424 54.4146 5.208 55.3906 5.208C56.2066 5.208 56.9506 5.384 57.6226 5.736C58.2946 6.088 58.8706 6.56 59.3506 7.152C59.8466 7.744 60.2226 8.44 60.4786 9.24C60.7506 10.04 60.8866 10.88 60.8866 11.76C60.8866 12.672 60.7346 13.52 60.4306 14.304C60.1426 15.088 59.7346 15.776 59.2066 16.368C58.6786 16.944 58.0546 17.4 57.3346 17.736C56.6146 18.072 55.8386 18.24 55.0066 18.24ZM54.1186 15.504C54.6306 15.504 55.1026 15.408 55.5346 15.216C55.9666 15.008 56.3346 14.736 56.6386 14.4C56.9426 14.064 57.1746 13.672 57.3346 13.224C57.5106 12.776 57.5986 12.296 57.5986 11.784C57.5986 11.272 57.5186 10.784 57.3586 10.32C57.1986 9.856 56.9666 9.448 56.6626 9.096C56.3746 8.744 56.0306 8.464 55.6306 8.256C55.2306 8.048 54.7906 7.944 54.3106 7.944C53.5906 7.944 52.9426 8.184 52.3666 8.664C51.8066 9.128 51.3746 9.704 51.0706 10.392V13.392C51.1826 13.712 51.3426 14 51.5506 14.256C51.7746 14.512 52.0226 14.736 52.2946 14.928C52.5666 15.104 52.8626 15.248 53.1826 15.36C53.5026 15.456 53.8146 15.504 54.1186 15.504ZM70.5536 8.208C69.5776 8.224 68.7056 8.416 67.9376 8.784C67.1696 9.136 66.6176 9.672 66.2816 10.392V18H63.0656V5.424H66.0176V8.112C66.2416 7.68 66.5056 7.296 66.8096 6.96C67.1136 6.608 67.4416 6.304 67.7936 6.048C68.1456 5.792 68.4976 5.6 68.8496 5.472C69.2176 5.328 69.5696 5.256 69.9056 5.256C70.0816 5.256 70.2096 5.256 70.2896 5.256C70.3856 5.256 70.4736 5.264 70.5536 5.28V8.208ZM72.3468 18V5.424H75.5628V18H72.3468ZM72.3468 3.672V0.48H75.5628V3.672H72.3468ZM83.672 18.24C82.808 18.24 82.008 18.072 81.272 17.736C80.536 17.4 79.904 16.936 79.376 16.344C78.848 15.752 78.432 15.064 78.128 14.28C77.84 13.48 77.696 12.624 77.696 11.712C77.696 10.8 77.832 9.952 78.104 9.168C78.392 8.384 78.784 7.696 79.28 7.104C79.776 6.512 80.368 6.048 81.056 5.712C81.744 5.376 82.496 5.208 83.312 5.208C84.24 5.208 85.072 5.432 85.808 5.88C86.56 6.328 87.144 6.912 87.56 7.632V0.48H90.776V14.304C90.776 14.64 90.832 14.88 90.944 15.024C91.056 15.168 91.248 15.248 91.52 15.264V18C90.96 18.112 90.504 18.168 90.152 18.168C89.576 18.168 89.104 18.024 88.736 17.736C88.368 17.448 88.16 17.072 88.112 16.608L88.04 15.816C87.576 16.616 86.944 17.224 86.144 17.64C85.36 18.04 84.536 18.24 83.672 18.24ZM84.512 15.504C84.816 15.504 85.128 15.456 85.448 15.36C85.768 15.248 86.064 15.096 86.336 14.904C86.608 14.712 86.848 14.488 87.056 14.232C87.28 13.976 87.448 13.696 87.56 13.392V10.392C87.432 10.04 87.248 9.72 87.008 9.432C86.784 9.128 86.52 8.872 86.216 8.664C85.928 8.44 85.616 8.264 85.28 8.136C84.96 8.008 84.64 7.944 84.32 7.944C83.84 7.944 83.392 8.048 82.976 8.256C82.576 8.464 82.232 8.752 81.944 9.12C81.656 9.472 81.432 9.88 81.272 10.344C81.112 10.808 81.032 11.288 81.032 11.784C81.032 12.312 81.12 12.8 81.296 13.248C81.472 13.696 81.712 14.088 82.016 14.424C82.32 14.76 82.68 15.024 83.096 15.216C83.528 15.408 84 15.504 84.512 15.504ZM97.3648 18.24C96.7568 18.24 96.1888 18.144 95.6608 17.952C95.1328 17.744 94.6768 17.464 94.2928 17.112C93.9088 16.744 93.6048 16.32 93.3808 15.84C93.1728 15.36 93.0688 14.832 93.0688 14.256C93.0688 13.664 93.1968 13.12 93.4528 12.624C93.7248 12.112 94.0928 11.68 94.5568 11.328C95.0368 10.976 95.6048 10.704 96.2608 10.512C96.9168 10.304 97.6368 10.2 98.4208 10.2C98.9808 10.2 99.5248 10.248 100.053 10.344C100.597 10.44 101.077 10.576 101.493 10.752V10.032C101.493 9.2 101.253 8.56 100.773 8.112C100.309 7.664 99.6128 7.44 98.6848 7.44C98.0128 7.44 97.3568 7.56 96.7168 7.8C96.0768 8.04 95.4208 8.392 94.7488 8.856L93.7648 6.816C95.3808 5.744 97.1248 5.208 98.9968 5.208C100.805 5.208 102.205 5.656 103.197 6.552C104.205 7.432 104.709 8.712 104.709 10.392V14.304C104.709 14.64 104.765 14.88 104.877 15.024C105.005 15.168 105.205 15.248 105.477 15.264V18C104.933 18.112 104.461 18.168 104.061 18.168C103.453 18.168 102.981 18.032 102.645 17.76C102.325 17.488 102.125 17.128 102.045 16.68L101.973 15.984C101.413 16.72 100.733 17.28 99.9328 17.664C99.1328 18.048 98.2768 18.24 97.3648 18.24ZM98.2768 15.888C98.8208 15.888 99.3328 15.792 99.8128 15.6C100.309 15.408 100.693 15.152 100.965 14.832C101.317 14.56 101.493 14.256 101.493 13.92V12.48C101.109 12.336 100.693 12.224 100.245 12.144C99.7968 12.048 99.3648 12 98.9488 12C98.1168 12 97.4368 12.192 96.9088 12.576C96.3808 12.944 96.1168 13.416 96.1168 13.992C96.1168 14.536 96.3248 14.992 96.7408 15.36C97.1568 15.712 97.6688 15.888 98.2768 15.888Z" fill="#AD4949"/>
</svg>
